<?xml version="1.0" encoding="UTF-8" standalone="no"?>
<!-- Created with Inkscape (http://www.inkscape.org/) -->

<svg
   width="210mm"
   height="297mm"
   viewBox="0 0 210 297"
   version="1.1"
   id="svg1"
   xml:space="preserve"
   inkscape:version="1.4.4 (dcaf3e7d9e, 2026-05-05)"
   sodipodi:docname="icon_inkscape.svg"
   xmlns:inkscape="http://www.inkscape.org/namespaces/inkscape"
   xmlns:sodipodi="http://sodipodi.sourceforge.net/DTD/sodipodi-0.dtd"
   xmlns="http://www.w3.org/2000/svg"
   xmlns:svg="http://www.w3.org/2000/svg"><sodipodi:namedview
     id="namedview1"
     pagecolor="#505050"
     bordercolor="#eeeeee"
     borderopacity="1"
     inkscape:showpageshadow="0"
     inkscape:pageopacity="0"
     inkscape:pagecheckerboard="0"
     inkscape:deskcolor="#505050"
     inkscape:document-units="mm"
     inkscape:zoom="35.826223"
     inkscape:cx="395.29704"
     inkscape:cy="562.33948"
     inkscape:window-width="2560"
     inkscape:window-height="1380"
     inkscape:window-x="0"
     inkscape:window-y="0"
     inkscape:window-maximized="1"
     inkscape:current-layer="layer3" /><defs
     id="defs1" /><g
     inkscape:groupmode="layer"
     id="layer3"
     inkscape:label="Layer 3"><ellipse
       style="fill:#478cbf;fill-opacity:1;stroke-width:0.238"
       id="path11"
       cx="104.75023"
       cy="148.14999"
       rx="2.9762301"
       ry="2.9760001" /></g><g
     inkscape:label="Layer 1"
     inkscape:groupmode="layer"
     id="layer1"><g
       style="fill:#ffffff"
       id="g5"
       transform="matrix(0.26458333,0,0,0.26458333,101.825,145.325)"><rect
         fill="none"
         height="24"
         width="24"
         id="rect1-5"
         x="0"
         y="0" /><path
         d="m 12,7 c -2.76,0 -5,2.24 -5,5 0,2.76 2.24,5 5,5 2.76,0 5,-2.24 5,-5 C 17,9.24 14.76,7 12,7 Z M 2,13 H 4 C 4.55,13 5,12.55 5,12 5,11.45 4.55,11 4,11 H 2 c -0.55,0 -1,0.45 -1,1 0,0.55 0.45,1 1,1 z m 18,0 -0.233001,-0.6699 c -0.180681,-0.519475 0.692962,-0.198788 0.692962,-0.748788 0,-0.55 -0.567018,-1.9950297 -0.525487,-1.4466 L 20,11 c 0.04153,0.54843 -1,0.45 -1,1 0,0.55 1.180681,1.519475 1,1 z M 11,2 v 2 c 0,0.55 0.45,1 1,1 0.55,0 1,-0.45 1,-1 V 2 C 13,1.45 12.55,1 12,1 11.45,1 11,1.45 11,2 Z m 0,18 -0.362863,-0.0097 c -0.549803,-0.0147 0.729125,0.02306 1.279125,0.02306 0.55,0 0.150536,-0.169843 0.692963,-0.07889 L 13,20 c 0.542427,0.09096 -0.45,-1 -1,-1 -0.55,0 -0.450196,1.014699 -1,1 z M 5.99,4.58 C 5.6,4.19 4.96,4.19 4.58,4.58 4.19,4.97 4.19,5.61 4.58,5.99 l 1.06,1.06 c 0.39,0.39 1.03,0.39 1.41,0 0.38,-0.39 0.39,-1.03 0,-1.41 z m 12.37,12.37 c 0.533972,0.138108 -1.03,-0.39 -1.41,0 -0.39,0.39 -0.39,1.03 0,1.41 l -0.531013,-0.279801 c -0.48795,-0.257109 0.583399,-0.140338 0.963399,-0.530338 0.39,-0.39 0.50165,-0.443837 0.11165,-0.823837 z M 18.805925,6.5203378 C 19.340809,6.654869 18.777237,5.881113 18.387237,5.501113 c -0.39,-0.39 -0.332187,-0.5295626 -0.712187,-0.1395626 l -0.138887,0.6692248 c -0.112076,0.5400361 -0.1667,0.3321871 0.2233,0.7121871 0.39,0.38 0.108887,0.027137 0.488887,-0.3628627 z M 7.05,18.36 c 0.3812297,-0.398577 0.4179125,-0.304275 0.027913,-0.684275 -0.39,-0.39 -0.8346124,-0.50165 -1.2146124,-0.11165 l -1.1437375,0.08306 c -0.5500946,0.03995 0.3078129,0.555488 0.6978129,0.935488 0.39,0.38 0.6392247,0.808687 1.0192247,0.418687 z"
         id="path1-3"
         style="display:inline;fill:#fff2bd;fill-opacity:1"
         sodipodi:nodetypes="ssssssssssssssssssssssssssssssssssccsscssccsccssccsscssccsscs" /></g></g><g
     inkscape:groupmode="layer"
     id="layer2"
     inkscape:label="Layer 2"><g
       style="fill:#ffffff"
       id="g4"
       transform="matrix(0.26458333,0,0,0.26458333,101.825,145.325)"><g
         id="g1"
         style="display:inline"><rect
           fill="none"
           height="24"
           width="24"
           id="rect1"
           x="0"
           y="0"
           style="display:inline" /></g><g
         id="g3"><g
           id="g2"
           transform="rotate(-135,12.851231,12.353499)"><path
             d="m 15.500001,22.000001 c 0.07,0 0.14,0 0.21,0 0.84,-0.02 1.12,-1.11 0.41,-1.56 -2.78,-1.77 -4.63,-4.89 -4.63,-8.43 0,-3.5500002 1.85,-6.6600002 4.63,-8.4400002 0.7,-0.45 0.44,-1.54 -0.39,-1.56 -0.04,0 -0.09,0 -0.13,0 -4.9,-0.05 -9.21,3.53 -9.98,8.3700002 -0.98,6.23 3.83,11.62 9.88,11.62 z"
             id="path1"
             style="display:inline;fill:#d0bcff;fill-opacity:1" /></g></g></g></g></svg>
